# xmcd
#
# Track frame offsets:
#	150
#	16447
#	31387
#	47255
#	64260
#	82557
#	99977
#	114640
#	125277
#	137542
#
# Disc length: 2127 seconds
# Revision: 4
# Processed by: cddbd v1.5.2PL0 Copyright (c) Steve Scherf et al.
# Submitted via: dBpowerAMP V12.0
#
DISCID=70084d0a
DTITLE=Alabama - Feels So Right
DYEAR=1981
DGENRE=Country
TTITLE0=Feels So Right
TTITLE1=Love In The First Degree
TTITLE2=Burn Georgia Burn
TTITLE3=Ride The Train
TTITLE4=Fantasy
TTITLE5=Hollywood
TTITLE6=Old Flame
TTITLE7=Woman Back Home
TTITLE8=See The Embers, Feel The Flame
TTITLE9=I'm Stoned
EXTD=
EXTT0=
EXTT1=
EXTT2=
EXTT3=
EXTT4=
EXTT5=
EXTT6=
EXTT7=
EXTT8=
EXTT9=
PLAYORDER=
